Coordinates
version=1
nRows=5
nColumns=40
inDegrees=yes

Units are S.I. units (second, meters, Newtons, ...)
If the header above contains a line with 'inDegrees', this indicates whether rotational values are in degrees (yes) or radians (no).

endheader
time	pelvis_tilt	pelvis_list	pelvis_rotation	pelvis_tx	pelvis_ty	pelvis_tz	hip_flexion_r	hip_adduction_r	hip_rotation_r	knee_angle_r	knee_angle_r_beta	ankle_angle_r	subtalar_angle_r	mtp_angle_r	hip_flexion_l	hip_adduction_l	hip_rotation_l	knee_angle_l	knee_angle_l_beta	ankle_angle_l	subtalar_angle_l	mtp_angle_l	lumbar_extension	lumbar_bending	lumbar_rotation	arm_flex_r	arm_add_r	arm_rot_r	elbow_flex_r	pro_sup_r	wrist_flex_r	wrist_dev_r	arm_flex_l	arm_add_l	arm_rot_l	elbow_flex_l	pro_sup_l	wrist_flex_l	wrist_dev_l
      6.63500000	    -20.39264823	     -5.38699763	      5.64999947	     -0.51561431	      0.65779863	     -0.88885619	     80.95969707	    -22.42112242	    -10.82446301	    100.11551599	      1.74734539	     40.53190285	      0.00000000	      0.00000000	     90.68291484	    -23.02972939	     -1.91048509	     99.67208945	      1.73960613	     31.19226968	      0.00000000	      0.00000000	    -31.02892961	      5.00974048	      4.23186115	     31.31542575	    -59.02688771	     89.62675265	    109.17446788	     88.73228110	      0.00000000	      0.00000000	     34.46118693	    -50.78083478	     89.74827217	    110.01658631	     88.75032536	      0.00000000	      0.00000000
      6.64000000	    -20.45039099	     -5.32991051	      5.64457769	     -0.51575639	      0.65847136	     -0.88890382	     80.97040414	    -22.41487740	    -10.79336949	    100.00827056	      1.74547360	     40.54105758	      0.00000000	      0.00000000	     90.59862849	    -22.98859796	     -2.03702953	     99.53114464	      1.73714618	     31.21118032	      0.00000000	      0.00000000	    -31.10452908	      4.97055453	      4.20810898	     31.35697153	    -59.02686499	     89.62894249	    109.23739288	     88.72583095	      0.00000000	      0.00000000	     34.46326555	    -50.76227628	     89.75000694	    110.06377940	     88.76234246	      0.00000000	      0.00000000
      6.64500000	    -20.60770974	     -5.50468502	      5.61970361	     -0.51607676	      0.65889854	     -0.88870012	     81.01515286	    -22.28517283	    -10.97387573	     99.84945104	      1.74270168	     40.47682445	      0.00000000	      0.00000000	     90.82220803	    -23.03223749	     -1.89456816	     99.42330547	      1.73526403	     31.12000726	      0.00000000	      0.00000000	    -31.07287471	      5.12012842	      4.31518245	     31.37158307	    -59.04122233	     89.63225631	    109.25939111	     88.71298760	      0.00000000	      0.00000000	     34.44053809	    -50.76650028	     89.75182705	    110.08462253	     88.75111372	      0.00000000	      0.00000000
      6.65000000	    -20.79382693	     -5.60655545	      5.46681288	     -0.51640138	      0.65966494	     -0.88830188	     81.10108709	    -22.02790810	    -11.07144624	     99.61521265	      1.73861345	     40.43126929	      0.00000000	      0.00000000	     90.96584027	    -23.18284946	     -1.83925934	     99.24808217	      1.73220581	     31.05267922	      0.00000000	      0.00000000	    -31.05985039	      5.13600765	      4.51589018	     31.35514034	    -59.03664308	     89.63189596	    109.24234965	     88.72732222	      0.00000000	      0.00000000	     34.48559537	    -50.72272486	     89.75338428	    110.04039372	     88.75927082	      0.00000000	      0.00000000
      6.65500000	    -20.69011668	     -5.60014199	      5.44570384	     -0.51617677	      0.66085281	     -0.88812677	     80.85690372	    -21.92361522	    -11.08922505	     99.46251535	      1.73594838	     40.50592752	      0.00000000	      0.00000000	     90.71745174	    -23.25384890	     -1.90483416	     99.10955041	      1.72978797	     31.06732075	      0.00000000	      0.00000000	    -31.33863781	      5.12594764	      4.55781264	     31.39310747	    -58.97564377	     89.63909808	    109.23110174	     88.69128857	      0.00000000	      0.00000000	     34.49450269	    -50.72272528	     89.75412905	    110.00812581	     88.76296662	      0.00000000	      0.00000000
